<?xml version="1.0" encoding="UTF-8" standalone="no"?>
<!DOCTYPE svg PUBLIC "-//W3C//DTD SVG 1.1//EN"
 "http://www.w3.org/Graphics/SVG/1.1/DTD/svg11.dtd">
<!-- Generated by graphviz version 14.0.4 (0)
 -->
<!-- Pages: 1 -->
<svg width="612pt" height="476pt"
 viewBox="0.00 0.00 612.00 476.00" xmlns="http://www.w3.org/2000/svg" xmlns:xlink="http://www.w3.org/1999/xlink">
<g id="graph0" class="graph" transform="scale(1 1) rotate(0) translate(4 472)">
<polygon fill="white" stroke="none" points="-4,4 -4,-472 607.75,-472 607.75,4 -4,4"/>
<!-- 4887942049386920640 -->
<g id="node1" class="node">
<title>4887942049386920640</title>
<polygon fill="none" stroke="black" points="406.75,-468 273.75,-468 273.75,-432 406.75,-432 406.75,-468"/>
<text xml:space="preserve" text-anchor="middle" x="340.25" y="-442.62" font-family="Helvetica,sans-Serif" font-size="20.00">Mul(Div, 100)</text>
</g>
<!-- 8848023001601108018 -->
<g id="node2" class="node">
<title>8848023001601108018</title>
<polygon fill="none" stroke="black" points="414.62,-396 265.88,-396 265.88,-360 414.62,-360 414.62,-396"/>
<text xml:space="preserve" text-anchor="middle" x="340.25" y="-370.62" font-family="Helvetica,sans-Serif" font-size="20.00">Div(Sum, Size)</text>
</g>
<!-- 8848023001601108018&#45;&gt;4887942049386920640 -->
<g id="edge1" class="edge">
<title>8848023001601108018&#45;&gt;4887942049386920640</title>
<path fill="none" stroke="black" d="M340.25,-396.3C340.25,-403.59 340.25,-412.27 340.25,-420.46"/>
<polygon fill="black" stroke="black" points="336.75,-420.38 340.25,-430.38 343.75,-420.38 336.75,-420.38"/>
</g>
<!-- &#45;1314004240065309198 -->
<g id="node3" class="node">
<title>&#45;1314004240065309198</title>
<polygon fill="none" stroke="black" points="330.88,-324 213.62,-324 213.62,-288 330.88,-288 330.88,-324"/>
<text xml:space="preserve" text-anchor="middle" x="272.25" y="-298.62" font-family="Helvetica,sans-Serif" font-size="20.00">Size(Index)</text>
</g>
<!-- &#45;1314004240065309198&#45;&gt;8848023001601108018 -->
<g id="edge2" class="edge">
<title>&#45;1314004240065309198&#45;&gt;8848023001601108018</title>
<path fill="none" stroke="black" d="M289.06,-324.3C297.13,-332.61 306.95,-342.72 315.83,-351.86"/>
<polygon fill="black" stroke="black" points="313.1,-354.08 322.58,-358.81 318.12,-349.2 313.1,-354.08"/>
</g>
<!-- 8743851279231797928 -->
<g id="node4" class="node">
<title>8743851279231797928</title>
<polygon fill="none" stroke="black" points="284.5,-180 0,-180 0,-144 284.5,-144 284.5,-180"/>
<text xml:space="preserve" text-anchor="middle" x="142.25" y="-154.62" font-family="Helvetica,sans-Serif" font-size="20.00">Index(ArrowStringConversion)</text>
</g>
<!-- 8743851279231797928&#45;&gt;&#45;1314004240065309198 -->
<g id="edge4" class="edge">
<title>8743851279231797928&#45;&gt;&#45;1314004240065309198</title>
<path fill="none" stroke="black" d="M158.19,-180.41C180.92,-205.24 222.8,-250.99 249,-279.6"/>
<polygon fill="black" stroke="black" points="246.23,-281.76 255.56,-286.77 251.39,-277.03 246.23,-281.76"/>
</g>
<!-- &#45;3260761136024944051 -->
<g id="node5" class="node">
<title>&#45;3260761136024944051</title>
<polygon fill="none" stroke="black" points="508.12,-108 86.37,-108 86.37,-72 508.12,-72 508.12,-108"/>
<text xml:space="preserve" text-anchor="middle" x="297.25" y="-82.62" font-family="Helvetica,sans-Serif" font-size="20.00">ArrowStringConversion(FromMapProjectable)</text>
</g>
<!-- &#45;3260761136024944051&#45;&gt;8743851279231797928 -->
<g id="edge5" class="edge">
<title>&#45;3260761136024944051&#45;&gt;8743851279231797928</title>
<path fill="none" stroke="black" d="M258.54,-108.48C238.12,-117.71 212.86,-129.11 191.1,-138.94"/>
<polygon fill="black" stroke="black" points="189.79,-135.69 182.12,-143 192.67,-142.07 189.79,-135.69"/>
</g>
<!-- 2917588052171354600 -->
<g id="node9" class="node">
<title>2917588052171354600</title>
<polygon fill="none" stroke="black" points="603.75,-180 302.75,-180 302.75,-144 603.75,-144 603.75,-180"/>
<text xml:space="preserve" text-anchor="middle" x="453.25" y="-154.62" font-family="Helvetica,sans-Serif" font-size="20.00">NotNull(ArrowStringConversion)</text>
</g>
<!-- &#45;3260761136024944051&#45;&gt;2917588052171354600 -->
<g id="edge9" class="edge">
<title>&#45;3260761136024944051&#45;&gt;2917588052171354600</title>
<path fill="none" stroke="black" d="M336.21,-108.48C356.77,-117.71 382.19,-129.11 404.08,-138.94"/>
<polygon fill="black" stroke="black" points="402.58,-142.1 413.13,-143 405.44,-135.71 402.58,-142.1"/>
</g>
<!-- 8269362559454206595 -->
<g id="node6" class="node">
<title>8269362559454206595</title>
<polygon fill="none" stroke="black" points="398.25,-36 196.25,-36 196.25,0 398.25,0 398.25,-36"/>
<text xml:space="preserve" text-anchor="middle" x="297.25" y="-10.62" font-family="Helvetica,sans-Serif" font-size="20.00">FromMapProjectable</text>
</g>
<!-- 8269362559454206595&#45;&gt;&#45;3260761136024944051 -->
<g id="edge6" class="edge">
<title>8269362559454206595&#45;&gt;&#45;3260761136024944051</title>
<path fill="none" stroke="black" d="M297.25,-36.3C297.25,-43.59 297.25,-52.27 297.25,-60.46"/>
<polygon fill="black" stroke="black" points="293.75,-60.38 297.25,-70.38 300.75,-60.38 293.75,-60.38"/>
</g>
<!-- 1603434359312013413 -->
<g id="node7" class="node">
<title>1603434359312013413</title>
<polygon fill="none" stroke="black" points="491.38,-324 371.12,-324 371.12,-288 491.38,-288 491.38,-324"/>
<text xml:space="preserve" text-anchor="middle" x="431.25" y="-298.62" font-family="Helvetica,sans-Serif" font-size="20.00">Sum(Invert)</text>
</g>
<!-- 1603434359312013413&#45;&gt;8848023001601108018 -->
<g id="edge3" class="edge">
<title>1603434359312013413&#45;&gt;8848023001601108018</title>
<path fill="none" stroke="black" d="M408.76,-324.3C397.6,-332.89 383.94,-343.39 371.76,-352.76"/>
<polygon fill="black" stroke="black" points="369.79,-349.86 364,-358.73 374.06,-355.41 369.79,-349.86"/>
</g>
<!-- &#45;2480010998411257214 -->
<g id="node8" class="node">
<title>&#45;2480010998411257214</title>
<polygon fill="none" stroke="black" points="514.38,-252 370.12,-252 370.12,-216 514.38,-216 514.38,-252"/>
<text xml:space="preserve" text-anchor="middle" x="442.25" y="-226.62" font-family="Helvetica,sans-Serif" font-size="20.00">Invert(NotNull)</text>
</g>
<!-- &#45;2480010998411257214&#45;&gt;1603434359312013413 -->
<g id="edge7" class="edge">
<title>&#45;2480010998411257214&#45;&gt;1603434359312013413</title>
<path fill="none" stroke="black" d="M439.53,-252.3C438.37,-259.68 436.99,-268.48 435.69,-276.75"/>
<polygon fill="black" stroke="black" points="432.27,-275.98 434.17,-286.4 439.18,-277.07 432.27,-275.98"/>
</g>
<!-- 2917588052171354600&#45;&gt;&#45;2480010998411257214 -->
<g id="edge8" class="edge">
<title>2917588052171354600&#45;&gt;&#45;2480010998411257214</title>
<path fill="none" stroke="black" d="M450.53,-180.3C449.37,-187.68 447.99,-196.48 446.69,-204.75"/>
<polygon fill="black" stroke="black" points="443.27,-203.98 445.17,-214.4 450.18,-205.07 443.27,-203.98"/>
</g>
</g>
</svg>
